<svg width="32" height="33" viewBox="0 0 32 33" fill="none" xmlns="http://www.w3.org/2000/svg">
<g clip-path="url(#clip0_410_158)">
<path d="M5.33335 21.8333V5.83332H2.66669V3.16666H6.66669C7.02031 3.16666 7.35945 3.30713 7.6095 3.55718C7.85954 3.80723 8.00002 4.14637 8.00002 4.49999V20.5H24.584L27.2507 9.83332H10.6667V7.16666H28.96C29.1627 7.16666 29.3627 7.21287 29.5448 7.30177C29.727 7.39067 29.8864 7.51993 30.0111 7.67971C30.1358 7.83949 30.2224 8.02559 30.2644 8.22387C30.3064 8.42215 30.3026 8.62739 30.2534 8.82399L26.92 22.1573C26.8478 22.4457 26.6813 22.7016 26.447 22.8845C26.2126 23.0673 25.9239 23.1666 25.6267 23.1667H6.66669C6.31307 23.1667 5.97393 23.0262 5.72388 22.7761C5.47383 22.5261 5.33335 22.1869 5.33335 21.8333ZM8.00002 31.1667C7.29278 31.1667 6.6145 30.8857 6.1144 30.3856C5.61431 29.8855 5.33335 29.2072 5.33335 28.5C5.33335 27.7927 5.61431 27.1145 6.1144 26.6144C6.6145 26.1143 7.29278 25.8333 8.00002 25.8333C8.70726 25.8333 9.38554 26.1143 9.88564 26.6144C10.3857 27.1145 10.6667 27.7927 10.6667 28.5C10.6667 29.2072 10.3857 29.8855 9.88564 30.3856C9.38554 30.8857 8.70726 31.1667 8.00002 31.1667ZM24 31.1667C23.2928 31.1667 22.6145 30.8857 22.1144 30.3856C21.6143 29.8855 21.3334 29.2072 21.3334 28.5C21.3334 27.7927 21.6143 27.1145 22.1144 26.6144C22.6145 26.1143 23.2928 25.8333 24 25.8333C24.7073 25.8333 25.3855 26.1143 25.8856 26.6144C26.3857 27.1145 26.6667 27.7927 26.6667 28.5C26.6667 29.2072 26.3857 29.8855 25.8856 30.3856C25.3855 30.8857 24.7073 31.1667 24 31.1667Z" fill="black"/>
</g>
<defs>
<clipPath id="clip0_410_158">
<rect width="32" height="32" fill="white" transform="translate(0 0.5)"/>
</clipPath>
</defs>
</svg>
