<svg width="28" height="26" viewBox="0 0 28 26" fill="none" xmlns="http://www.w3.org/2000/svg">
<path d="M20 0.5C24.0507 0.5 27.3334 3.83333 27.3334 8.5C27.3334 17.8333 17.3334 23.1667 14 25.1667C10.6667 23.1667 0.666687 17.8333 0.666687 8.5C0.666687 3.83333 4.00002 0.5 8.00002 0.5C10.48 0.5 12.6667 1.83333 14 3.16667C15.3334 1.83333 17.52 0.5 20 0.5ZM15.2454 21.3053C16.42 20.564 17.48 19.8267 18.472 19.0373C22.4467 15.8773 24.6667 12.424 24.6667 8.5C24.6667 5.35333 22.6174 3.16667 20 3.16667C18.5654 3.16667 17.0134 3.92667 15.8854 5.052L14 6.93733L12.1147 5.052C10.9867 3.92667 9.43469 3.16667 8.00002 3.16667C5.41335 3.16667 3.33335 5.37467 3.33335 8.5C3.33335 12.4253 5.55469 15.8773 9.52669 19.0373C10.52 19.8267 11.58 20.564 12.7547 21.304C13.1534 21.556 13.548 21.7973 14 22.0667C14.452 21.7973 14.8467 21.556 15.2454 21.3053Z" fill="black"/>
</svg>
