<svg width="28" height="28" viewBox="0 0 28 28" fill="none" xmlns="http://www.w3.org/2000/svg">
<path d="M22.0413 19.656L27.752 25.3653L25.8653 27.252L20.156 21.5413C18.0316 23.2443 15.3893 24.1705 12.6667 24.1667C6.04266 24.1667 0.666656 18.7907 0.666656 12.1667C0.666656 5.54266 6.04266 0.166656 12.6667 0.166656C19.2907 0.166656 24.6667 5.54266 24.6667 12.1667C24.6705 14.8893 23.7443 17.5316 22.0413 19.656ZM19.3667 18.6667C21.0588 16.9265 22.0038 14.5939 22 12.1667C22 7.00932 17.8227 2.83332 12.6667 2.83332C7.50932 2.83332 3.33332 7.00932 3.33332 12.1667C3.33332 17.3227 7.50932 21.5 12.6667 21.5C15.0939 21.5038 17.4265 20.5588 19.1667 18.8667L19.3667 18.6667Z" fill="black"/>
</svg>
