<svg width="22" height="29" viewBox="0 0 22 29" fill="none" xmlns="http://www.w3.org/2000/svg">
<path d="M0.333313 28.8333C0.333313 26.0044 1.45712 23.2913 3.45751 21.2909C5.4579 19.2905 8.171 18.1667 11 18.1667C13.829 18.1667 16.5421 19.2905 18.5425 21.2909C20.5428 23.2913 21.6666 26.0044 21.6666 28.8333H19C19 26.7116 18.1571 24.6768 16.6568 23.1765C15.1565 21.6762 13.1217 20.8333 11 20.8333C8.87825 20.8333 6.84342 21.6762 5.34313 23.1765C3.84283 24.6768 2.99998 26.7116 2.99998 28.8333H0.333313ZM11 16.8333C6.57998 16.8333 2.99998 13.2533 2.99998 8.83334C2.99998 4.41334 6.57998 0.833344 11 0.833344C15.42 0.833344 19 4.41334 19 8.83334C19 13.2533 15.42 16.8333 11 16.8333ZM11 14.1667C13.9466 14.1667 16.3333 11.78 16.3333 8.83334C16.3333 5.88668 13.9466 3.50001 11 3.50001C8.05331 3.50001 5.66665 5.88668 5.66665 8.83334C5.66665 11.78 8.05331 14.1667 11 14.1667Z" fill="black"/>
</svg>
