<svg width="20" height="19" viewBox="0 0 20 19" fill="none" xmlns="http://www.w3.org/2000/svg">
<path d="M19.304 0.979998L18.872 4.328C17.816 4.256 17 4.448 16.424 4.904C15.848 5.36 15.464 5.996 15.272 6.812C15.08 7.628 15.044 8.552 15.164 9.584H19.304V18.26H11.348V8.864C11.348 6.032 12.02 3.896 13.364 2.456C14.732 0.991999 16.712 0.499999 19.304 0.979998ZM8.216 0.979998L7.784 4.328C6.728 4.256 5.912 4.448 5.336 4.904C4.76 5.36 4.376 5.996 4.184 6.812C3.992 7.628 3.956 8.552 4.076 9.584H8.216V18.26H0.26V8.864C0.26 6.032 0.932 3.896 2.276 2.456C3.644 0.991999 5.624 0.499999 8.216 0.979998Z" fill="black"/>
</svg>
