<svg width="20" height="19" viewBox="0 0 20 19" fill="none" xmlns="http://www.w3.org/2000/svg">
<path d="M0.26 18.224L0.728 14.876C1.76 14.948 2.564 14.756 3.14 14.3C3.716 13.844 4.1 13.208 4.292 12.392C4.484 11.576 4.52 10.652 4.4 9.62H0.26V0.943996H8.216V10.34C8.216 13.172 7.532 15.308 6.164 16.748C4.82 18.188 2.852 18.68 0.26 18.224ZM11.348 18.224L11.816 14.876C12.848 14.948 13.652 14.756 14.228 14.3C14.804 13.844 15.188 13.208 15.38 12.392C15.572 11.576 15.608 10.652 15.488 9.62H11.348V0.943996H19.304V10.34C19.304 13.172 18.62 15.308 17.252 16.748C15.908 18.188 13.94 18.68 11.348 18.224Z" fill="black"/>
</svg>
